PathFileType	4	(X/Y/Z)	C:/Users/beibeiliu/ov580/test_trc/User1\sequence.2_training_dense_right.trc
DataRate	CameraRate	NumFrames	NumMarkers	Units	OrigDataRate	OrigDataStartFrame	OrigNumFrames
120	120	8	19	mm	120	123	244
Frame#	Time	ThumbCMC			ThumbMCP			ThumbIP			ThumbTip			IndexMCP			IndexPIP			IndexTip			MiddleMCP			MiddlePIP			MiddleTip			RingMCP			RingPIP			RingTip			PinkyMCP			PinkyPIP			PinkyTip			BackHand1			BackHand2			BackHand3	
		X0	Y0	Z0	X1	Y1	Z1	X2	Y2	Z2	X3	Y3	Z3	X4	Y4	Z4	X5	Y5	Z5	X6	Y6	Z6	X7	Y7	Z7	X8	Y8	Z8	X9	Y9	Z9	X10	Y10	Z10	X11	Y11	Z11	X12	Y12	Z12	X13	Y13	Z13	X14	Y14	Z14	X15	Y15	Z15	X16	Y16	Z16	X17	Y17	Z17	X18	Y18	Z18	
122	1.01667	236.389	93.4222	24.7231	221.853	101.556	-4.91843	223.282	107.636	-31.9729	222.36	108.007	-58.1836	290.475	88.5102	-43.4301	283.787	84.6542	-75.9461	259.981	78.4883	-89.3283	303.258	65.4202	-42.0157	299.286	62.7696	-76.8493	265.488	59.2185	-97.2776	303.942	40.9197	-39.5319	298.86	41.8289	-73.3508	269.981	39.234	-88.3946	289.332	20.0553	-30.1603	288.176	19.3073	-53.9837	261.206	24.2272	-74.8405	286.13	37.4677	15.8959	269.655	32.4562	50.0013	272.555	73.2104	33.9428	
123	1.025	229.36	95.5562	26.6002	214.45	103.499	-6.60188	212.976	107.608	-29.302	204.982	112.449	-57.8406	280.972	103.801	-44.7735	275.662	100.383	-76.0757	247.537	83.4944	-92.7438	299.033	81.0969	-47.2826	291.516	80.3344	-82.0814	262.07	70.1165	-99.4914	304.671	60.4319	-43.8417	297.09	59.725	-75.9261	270.962	50.3994	-88.705	295.56	31.2106	-28.7148	290.657	31.1981	-60.3535	266.329	34.4214	-77.4328	288.731	50.1835	14.5228	276.864	45.8312	47.9335	269.505	82.6223	30.7013	
124	1.03333	225.166	95.7126	24.7107	207.72	100.353	-2.70817	201.508	107.924	-29.9627	196.964	108.415	-55.1852	268.825	115.755	-48.768	262.106	110.133	-78.3546	238.806	93.2411	-92.6195	289.439	100.732	-52.5586	285.453	94.2306	-82.5695	256.01	76.1248	-102.547	300.261	74.7858	-45.7644	294.579	73.1039	-78.4652	266.103	62.0546	-91.7478	299.274	47.495	-34.5039	292.641	47.2463	-62.0618	268.217	47.3282	-76.7017	286.689	66.2847	10.4578	277.352	60.8253	45.701	264.188	94.3121	28.1201	
125	1.04167	217.788	97.119	26.7239	197.489	99.2753	-3.24342	190.436	103.868	-26.6931	183.552	105.81	-54.0519	253.635	123.86	-46.5217	247.696	120.458	-77.9714	226.876	95.495	-93.4738	279.532	110.54	-52.6119	268.712	109.313	-88.3399	246.429	82.3961	-105.017	290.838	93.4594	-48.5349	285.931	86.4724	-82.9487	263.584	73.1516	-93.7218	293.561	66.0294	-33.6577	293.55	67.1948	-60.33	269.787	60.3259	-78.8908	287.701	79.537	8.66932	279.689	70.834	40.9205	257.747	102.456	25.1228	
126	1.05	212.483	96.241	26.0945	191.395	94.2635	0.647973	179.731	99.7528	-24.5013	173.652	96.643	-48.2363	236.611	129.816	-47.2269	232.774	120.986	-81.2162	219.182	94.4222	-93.6632	266.449	121.839	-56.9153	257.29	115.737	-89.343	240.173	88.4267	-105.287	284.322	104.851	-52.3414	276.391	101.069	-82.8493	257.854	77.3357	-96.9449	292.004	78.7253	-36.2818	290.103	77.7744	-65.2886	264.926	69.7694	-82.2482	279.726	94.1454	6.06539	280.524	82.3755	39.4692	251.598	111.125	23.7049	
127	1.05833	206.119	95.9708	27.3474	187.629	89.7609	-0.0619353	173.171	89.9719	-21.0048	164.931	87.3818	-46.9817	224.643	129.332	-49.959	213.457	123.061	-81.2287	203.287	92.6206	-93.018	248.351	129.078	-56.4917	242.062	119.457	-91.2363	226.37	89.539	-106.409	268.367	115.732	-53.0529	263.219	107.795	-88.0949	250.486	83.9522	-98.0586	286.856	92.4502	-43.4013	278.399	87.9715	-70.0842	258.15	73.5493	-85.5198	274.093	102.291	1.87107	272.571	92.7122	39.3865	244	111.679	24.2304	
128	1.06667	198.297	92.2043	30.6316	181.392	80.7763	5.951	168.53	79.3137	-20.2313	158.228	73.3838	-47.5773	205.09	127.99	-50.1372	200.998	119.495	-78.9642	194.809	88.6431	-90.9891	232.632	129.647	-56.0231	222.333	121.896	-92.094	214.166	87.2167	-106.782	253.767	123.234	-57.0099	247.743	114.306	-89.4913	236.949	85.8638	-99.864	277.354	101.43	-47.0768	267.935	98.822	-70.3452	249.253	80.231	-82.8312	264.398	111.266	-1.99639	270.331	105.532	34.224	234.104	115.389	23.0465	
129	1.075	196.239	88.1043	27.7372	176.074	73.721	5.07434	161.581	67.2371	-17.8034	155.396	57.1715	-42.3275	192.135	121.424	-53.6867	182.988	110.918	-79.1733	184.92	78.7722	-90.1729	213.887	129.534	-61.3657	208.06	117.161	-93.7102	201.221	81.927	-106.827	239.651	124.551	-57.6362	235.008	117.933	-88.594	229.025	85.5928	-102.14	262.574	107.334	-45.6401	258.619	99.0969	-76.122	244.248	76.378	-87.064	252.746	117.416	-2.64576	259.034	111.543	33.2114	221.66	118.496	20.6398	
